<?xml version="1.0" encoding="UTF-8" standalone="no"?>
<svg width="21px" height="20px" viewBox="0 0 21 20" version="1.1" xmlns="http://www.w3.org/2000/svg" xmlns:xlink="http://www.w3.org/1999/xlink" xmlns:sketch="http://www.bohemiancoding.com/sketch/ns">
    <!-- Generator: Sketch 3.3.3 (12081) - http://www.bohemiancoding.com/sketch -->
    <title>icon-username</title>
    <desc>Created with Sketch.</desc>
    <defs></defs>
    <g id="Search-Module" stroke="none" stroke-width="1" fill="none" fill-rule="evenodd" sketch:type="MSPage">
        <g id="001-Login" sketch:type="MSArtboardGroup" transform="translate(-52.000000, -275.000000)" stroke="#FFFFFF" stroke-width="2">
            <g id="username" sketch:type="MSLayerGroup" transform="translate(0.000000, 272.000000)">
                <g transform="translate(50.000000, 0.948000)" id="icon-username" sketch:type="MSShapeGroup">
                    <g transform="translate(2.500000, 3.000000)">
                        <path d="M10,11 C6.625,11 0,12.665625 0,16.125 L0,18.6875 L20,18.6875 L20,16.125 C20,12.665625 13.375,11 10,11 L10,11 Z M10,9 C12.475,9 14.5,6.975 14.5,4.5 C14.5,2.025 12.475,0 10,0 C7.525,0 5.5,2.025 5.5,4.5 C5.5,6.975 7.525,9 10,9 L10,9 Z" id="shape"></path>
                    </g>
                </g>
            </g>
        </g>
    </g>
</svg>